<svg id="Capa_1" data-name="Capa 1" xmlns="http://www.w3.org/2000/svg" viewBox="0 0 105.61 63.3"><defs><style>.cls-1{fill:#ececec;}.cls-2{fill:#dad9d9;}.cls-3{fill:#b3b0b0;}.cls-4{fill:#fdf9f9;}.cls-5{fill:#c9c8c8;}.cls-6{fill:#43301f;}.cls-7{fill:#332a22;}.cls-8{fill:#f7e3d6;}.cls-9{fill:#fbfbfb;opacity:0.1;}.cls-10{fill:#0d0d0d;opacity:0.16;}</style></defs><title>americano</title><path class="cls-1" d="M345,406.55H247.9a4.26,4.26,0,0,1-4.26-4.26h0A4.26,4.26,0,0,1,247.9,398H345a4.26,4.26,0,0,1,4.26,4.26h0A4.26,4.26,0,0,1,345,406.55Z" transform="translate(-243.64 -347.81)"/><rect class="cls-2" x="18.87" y="58.74" width="67.87" height="4.57"/><rect class="cls-3" x="18.87" y="59.2" width="67.87" height="2.28"/><path class="cls-1" d="M333.57,358.31A15.68,15.68,0,1,0,349.24,374,15.68,15.68,0,0,0,333.57,358.31Zm0,25.8A10.12,10.12,0,1,1,343.69,374,10.12,10.12,0,0,1,333.57,384.11Z" transform="translate(-243.64 -347.81)"/><path class="cls-4" d="M349.24,374a15.65,15.65,0,0,0-20.15-15l.76,5.61A10.12,10.12,0,0,1,343.69,374a10.06,10.06,0,0,1-2.88,7.06l3,4.76A15.63,15.63,0,0,0,349.24,374Z" transform="translate(-243.64 -347.81)"/><path class="cls-5" d="M336.05,347.81H256.83S250,385.25,282,398H310.9C342.85,385.25,336.05,347.81,336.05,347.81Z" transform="translate(-243.64 -347.81)"/><path class="cls-6" d="M263.74,353.44a2.59,2.59,0,0,0-2.6,2.59,60.72,60.72,0,0,0,.78,9.6c2.86,17.38,17.56,30,34.52,30S328.1,383,331,365.63a60.72,60.72,0,0,0,.78-9.6,2.59,2.59,0,0,0-2.6-2.59Z" transform="translate(-243.64 -347.81)"/><path class="cls-7" d="M296.44,395.6a34.46,34.46,0,0,0,23.26-9.14H273.19A34.45,34.45,0,0,0,296.44,395.6Z" transform="translate(-243.64 -347.81)"/><path class="cls-8" d="M261.14,355.38v0h70.6v0a4,4,0,0,0-4-3.91H265.11A4,4,0,0,0,261.14,355.38Z" transform="translate(-243.64 -347.81)"/><path class="cls-9" d="M296.44,398s21.19-8.07,19.36-50.22h11.87S332.32,389.51,296.44,398Z" transform="translate(-243.64 -347.81)"/><path class="cls-10" d="M310.9,398s-40.62-5.78-37.71-50.22H256.83S250.45,384.94,282,398Z" transform="translate(-243.64 -347.81)"/><path class="cls-4" d="M345,398H247.9a4.26,4.26,0,0,0-4.26,4.26h105.6A4.26,4.26,0,0,0,345,398Z" transform="translate(-243.64 -347.81)"/><path class="cls-4" d="M333.57,347.81S343.08,377.4,310.9,398c0,0,25.75-18.26,19.48-50.22Z" transform="translate(-243.64 -347.81)"/></svg>