<svg id="Capa_1" data-name="Capa 1" xmlns="http://www.w3.org/2000/svg" viewBox="0 0 97 87.75"><defs><style>.cls-1{fill:#c9c8c8;}.cls-2{fill:#9a6f4b;}.cls-3{fill:#c49266;}.cls-4{fill:#906744;}.cls-5{fill:#f7e3d6;}.cls-6{fill:#0d0d0d;opacity:0.16;}.cls-7{fill:#fbfbfb;opacity:0.1;}.cls-8{fill:#fdf9f9;}</style></defs><title>capuccino</title><path class="cls-1" d="M322.38,334.93c-8.87-5.38-21.69-.5-28.61,10.91s-5.35,25,3.53,30.43,21.69.5,28.62-10.92S331.26,340.32,322.38,334.93Zm-1.29,27.5c-4.85,8-13.81,11.4-20,7.63s-7.32-13.3-2.47-21.29,13.82-11.41,20-7.63S325.94,354.44,321.09,362.43Z" transform="translate(-233.23 -311.11)"/><polygon class="cls-1" points="39.88 4.51 0 4.51 13.87 87.75 39.88 87.75 65.89 87.75 79.76 4.51 39.88 4.51"/><polygon class="cls-2" points="39.88 4.51 7.27 4.51 18.61 74.23 39.88 74.23 61.15 74.23 72.49 4.51 39.88 4.51"/><polygon class="cls-3" points="72.49 4.51 39.88 4.51 7.27 4.51 10.06 21.63 69.7 21.63 72.49 4.51"/><polygon class="cls-4" points="17.5 67.35 18.61 74.23 39.88 74.23 61.15 74.23 62.27 67.35 17.5 67.35"/><path class="cls-5" d="M240.51,315.62l12.08-3.49a26.17,26.17,0,0,1,17,.86h0a9.52,9.52,0,0,0,7.06,0h0a26.84,26.84,0,0,1,17.38-.8l11.69,3.41Z" transform="translate(-233.23 -311.11)"/><polygon class="cls-6" points="17.5 4.51 28.76 87.75 13.87 87.75 0 4.51 17.5 4.51"/><polygon class="cls-7" points="68.33 4.51 54.63 87.75 47.02 87.75 50.07 4.51 68.33 4.51"/><polygon class="cls-8" points="79.76 4.51 65.89 87.75 58.89 87.75 72.49 4.51 79.76 4.51"/><path class="cls-8" d="M322.38,334.93c-5.14-3.12-11.61-2.77-17.49.28l2.83,5.5a11.93,11.93,0,0,1,10.9.43c6.21,3.77,7.32,13.3,2.47,21.29a21.65,21.65,0,0,1-3,3.91l3.46,4.66a30.71,30.71,0,0,0,4.4-5.64C332.84,353.94,331.26,340.32,322.38,334.93Z" transform="translate(-233.23 -311.11)"/></svg>