<svg id="Capa_1" data-name="Capa 1" xmlns="http://www.w3.org/2000/svg" viewBox="0 0 91.61 126.01"><defs><style>.cls-1{fill:#c9c8c8;}.cls-2{fill:#fdf9f9;}.cls-3{fill:#43301f;}.cls-4{fill:#543223;}.cls-5{fill:#f7e5dc;}.cls-6{fill:#f1ccb6;}.cls-7{opacity:0.2;}.cls-8{fill:#0d0d0d;}.cls-9{fill:#fbfbfb;opacity:0.1;}</style></defs><title>chocolate</title><path class="cls-1" d="M328.37,347.07h-9.89v7.3h7.62a9.74,9.74,0,0,1,9.73,9.74v9.44a9.73,9.73,0,0,1-9.73,9.73h-7.62v7.31h9.89a14.45,14.45,0,0,0,14.46-14.46V361.52A14.45,14.45,0,0,0,328.37,347.07Z" transform="translate(-251.22 -316.82)"/><path class="cls-1" d="M286.22,326.07h-35v62.54a31.5,31.5,0,0,0,31.5,31.5h7a31.5,31.5,0,0,0,31.5-31.5V326.07Z" transform="translate(-251.22 -316.82)"/><path class="cls-2" d="M313.92,326.07v62.54a31.49,31.49,0,0,1-31.35,31.49h7.15a31.5,31.5,0,0,0,31.5-31.5V326.07Z" transform="translate(-251.22 -316.82)"/><path class="cls-3" d="M286.22,326.07H257.69v57.67c0,16,11.5,29,25.68,29h5.71c14.18,0,25.68-13,25.68-29V326.07Z" transform="translate(-251.22 -316.82)"/><path class="cls-4" d="M286.22,326.07H257.69v57.67c0,16,11.5,29,25.68,29h5.71c14.18,0,25.68-13,25.68-29V326.07Z" transform="translate(-251.22 -316.82)"/><path class="cls-5" d="M272.09,327.89h-2.73a4.11,4.11,0,0,1-4.11-4.1h0a4.12,4.12,0,0,1,4.11-4.11h2.73a4.12,4.12,0,0,1,4.11,4.11h0A4.11,4.11,0,0,1,272.09,327.89Z" transform="translate(-251.22 -316.82)"/><path class="cls-5" d="M280.29,325.76l-2.53-1a4.12,4.12,0,0,1-2.25-5.35h0a4.12,4.12,0,0,1,5.36-2.25l2.53,1a4.12,4.12,0,0,1,2.25,5.35h0A4.11,4.11,0,0,1,280.29,325.76Z" transform="translate(-251.22 -316.82)"/><path class="cls-5" d="M292.2,327.89h-2.73a4.11,4.11,0,0,1-4.11-4.1h0a4.12,4.12,0,0,1,4.11-4.11h2.73a4.11,4.11,0,0,1,4.1,4.11h0A4.11,4.11,0,0,1,292.2,327.89Z" transform="translate(-251.22 -316.82)"/><path class="cls-5" d="M298.86,327.25l.12-2.73a4.13,4.13,0,0,1,4.29-3.92h0a4.12,4.12,0,0,1,3.92,4.28l-.12,2.73a4.12,4.12,0,0,1-4.28,3.93h0A4.13,4.13,0,0,1,298.86,327.25Z" transform="translate(-251.22 -316.82)"/><polygon class="cls-6" points="63.53 9.25 35 9.25 6.47 9.25 6.47 17.24 63.53 17.24 63.53 9.25"/><g class="cls-7"><path class="cls-8" d="M264,388.61V326.07H251.22v62.54a31.5,31.5,0,0,0,31.5,31.5h7c1,0,1.94-.06,2.89-.15A31.48,31.48,0,0,1,264,388.61Z" transform="translate(-251.22 -316.82)"/></g><path class="cls-2" d="M342.83,361.52a14.45,14.45,0,0,0-14.46-14.45h-9.89v7.3h7.62a9.74,9.74,0,0,1,9.73,9.74v9.44a9.67,9.67,0,0,1-.86,4l5.49,6.55a14.45,14.45,0,0,0,2.37-7.93Z" transform="translate(-251.22 -316.82)"/><path class="cls-9" d="M308.06,326.07v58s.91,28.72-21.84,34.64c0,0,8.75-10.51,8.14-34.64-.62-24.64-1.75-58-1.75-58Z" transform="translate(-251.22 -316.82)"/><path class="cls-1" d="M307.81,438.69l-12.33-14.56H276.9l-12.33,14.56c-1.28,1.51-.39,4.14,1.4,4.14h40.44C308.2,442.83,309.09,440.2,307.81,438.69Z" transform="translate(-251.22 -316.82)"/><g class="cls-7"><path class="cls-8" d="M301.64,431.41l-6.16-7.28H276.9l-6,7.12a31.93,31.93,0,0,0,15.32,4.22A32.43,32.43,0,0,0,301.64,431.41Z" transform="translate(-251.22 -316.82)"/></g><path class="cls-1" d="M301.27,424.13c0,3.79-6.75,6.86-15.08,6.86s-15.08-3.07-15.08-6.86,6.75-6.85,15.08-6.85S301.27,420.35,301.27,424.13Z" transform="translate(-251.22 -316.82)"/><ellipse class="cls-2" cx="37.28" cy="105.32" rx="10.7" ry="4.87"/><path class="cls-2" d="M289.68,435.47l5.93,7.36h11.25c1.42,0,2.15-2.05,1.17-3.29l-6.39-8.13S294.32,435.51,289.68,435.47Z" transform="translate(-251.22 -316.82)"/></svg>