<?xml version="1.0"?>
<svg xmlns="http://www.w3.org/2000/svg" xmlns:xlink="http://www.w3.org/1999/xlink" xmlns:svgjs="http://svgjs.com/svgjs" version="1.1" width="512" height="512" x="0" y="0" viewBox="0 0 512 512" style="enable-background:new 0 0 512 512" xml:space="preserve" class=""><g><path xmlns="http://www.w3.org/2000/svg" d="m456 440h-400a32 32 0 0 1 -32-32h464a32 32 0 0 1 -32 32z" fill="#e9eef2" data-original="#e9eef2" style="" class=""/><path xmlns="http://www.w3.org/2000/svg" d="m448 408h-192l-16-272h224z" fill="#dadcde" data-original="#dadcde" style="" class=""/><path xmlns="http://www.w3.org/2000/svg" d="m216 104h272v32h-272z" fill="#596063" data-original="#596063" style="" class=""/><path xmlns="http://www.w3.org/2000/svg" d="m240 72h224v32h-224z" fill="#7e8589" data-original="#7e8589" style="" class=""/><circle xmlns="http://www.w3.org/2000/svg" cx="352" cy="248" fill="#734b39" r="48" data-original="#734b39" style="" class=""/><path xmlns="http://www.w3.org/2000/svg" d="m464 328h-224l-8-96h240z" fill="#006341" data-original="#ad6643" style="" class=""/><path xmlns="http://www.w3.org/2000/svg" d="m232 344h-176a32 32 0 0 0 -32 32 32 32 0 0 0 32 32h176a32 32 0 0 0 32-32 32 32 0 0 0 -32-32z" fill="#d49073" data-original="#d49073" style="" class=""/><circle xmlns="http://www.w3.org/2000/svg" cx="144" cy="224" fill="#d49073" r="120" data-original="#d49073" style="" class=""/><circle xmlns="http://www.w3.org/2000/svg" cx="144" cy="224" fill="#734b39" r="88" data-original="#734b39" style="" class=""/><circle xmlns="http://www.w3.org/2000/svg" cx="144" cy="224" fill="#e9eef2" r="24" data-original="#e9eef2" style="" class=""/><g xmlns="http://www.w3.org/2000/svg" fill="#ad6643"><circle cx="144" cy="168" r="8" fill="#006341" data-original="#ad6643" style="" class=""/><circle cx="88" cy="224" r="8" fill="#006341" data-original="#ad6643" style="" class=""/><circle cx="144" cy="280" r="8" fill="#006341" data-original="#ad6643" style="" class=""/><circle cx="200" cy="224" r="8" fill="#006341" data-original="#ad6643" style="" class=""/><circle cx="184" cy="184" r="8" fill="#006341" data-original="#ad6643" style="" class=""/><circle cx="104" cy="184" r="8" fill="#006341" data-original="#ad6643" style="" class=""/><circle cx="104" cy="264" r="8" fill="#006341" data-original="#ad6643" style="" class=""/><circle cx="184" cy="264" r="8" fill="#006341" data-original="#ad6643" style="" class=""/></g></g></svg>
