<svg id="Capa_1" data-name="Capa 1" xmlns="http://www.w3.org/2000/svg" viewBox="0 0 265 239"><defs><style>.cls-1{fill:#e9eef2;}.cls-2{fill:#dadcde;}.cls-3{fill:#596063;}.cls-4{fill:#7e8589;}.cls-5{fill:#734b39;}.cls-6{fill:#006341;}.cls-7{fill:#d49073;}.cls-8{fill:#cc7046;}.cls-9{fill:#106e33;}</style></defs><title>delivery</title><path class="cls-1" d="M641.34,849H495.66c-6.44,0-11.66-6-11.66-13.39H653C653,843,647.78,849,641.34,849Z" transform="translate(-388 -610)"/><path class="cls-2" d="M638.43,835.61H568.5l-5.83-113.83h81.59Z" transform="translate(-388 -610)"/><path class="cls-3" d="M553.93,708.39H653v13.39H553.93Z" transform="translate(-388 -610)"/><path class="cls-4" d="M562.67,695h81.59v13.39H562.67Z" transform="translate(-388 -610)"/><ellipse class="cls-5" cx="215.47" cy="158.65" rx="17.48" ry="20.09"/><path class="cls-6" d="M644.26,802.13H562.67L559.76,762h87.41Z" transform="translate(-388 -610)"/><path class="cls-7" d="M559.76,808.83h-64.1c-6.44,0-11.66,6-11.66,13.39s5.22,13.39,11.66,13.39h64.1c6.44,0,11.65-6,11.65-13.39S566.2,808.83,559.76,808.83Z" transform="translate(-388 -610)"/><ellipse class="cls-7" cx="139.71" cy="148.61" rx="43.71" ry="50.22"/><ellipse class="cls-5" cx="139.71" cy="148.61" rx="32.05" ry="36.83"/><ellipse class="cls-1" cx="139.71" cy="148.61" rx="8.74" ry="10.04"/><ellipse class="cls-6" cx="139.71" cy="125.17" rx="2.91" ry="3.35"/><ellipse class="cls-6" cx="119.31" cy="148.61" rx="2.91" ry="3.35"/><ellipse class="cls-6" cx="139.71" cy="172.04" rx="2.91" ry="3.35"/><ellipse class="cls-6" cx="160.1" cy="148.61" rx="2.91" ry="3.35"/><ellipse class="cls-6" cx="154.28" cy="131.87" rx="2.91" ry="3.35"/><ellipse class="cls-6" cx="125.14" cy="131.87" rx="2.91" ry="3.35"/><ellipse class="cls-6" cx="125.14" cy="165.35" rx="2.91" ry="3.35"/><ellipse class="cls-6" cx="154.28" cy="165.35" rx="2.91" ry="3.35"/><path class="cls-6" d="M503.5,676h-12V646.78c0-12-7.74-21.69-17.25-21.69S457,634.82,457,646.78V676H445V646.78C445,626.5,458.12,610,474.25,610s29.25,16.5,29.25,36.78Z" transform="translate(-388 -610)"/><path class="cls-6" d="M469,676H457V646.78c0-12-7.74-21.69-17.25-21.69s-17.25,9.73-17.25,21.69V676h-12V646.78c0-20.28,13.12-36.78,29.25-36.78S469,626.5,469,646.78Z" transform="translate(-388 -610)"/><path class="cls-8" d="M487,676V842H391.64c-2,0-3.64-2-3.64-4.58V680.6c0-2.53,1.63-4.58,3.64-4.58Z" transform="translate(-388 -610)"/><path class="cls-8" d="M522.36,676H487V842h35.36c2,0,3.64-2,3.64-4.58V680.6c0-2.53-1.63-4.58-3.64-4.58Z" transform="translate(-388 -610)"/><path class="cls-8" d="M509.66,820.1V676h-5.57v144L487,837.49V842h4.42l15.42-15.73L521.68,842h.68c2,0,3.64-2,3.64-4.58Z" transform="translate(-388 -610)"/><path class="cls-9" d="M453.42,749.8a14.16,14.16,0,0,1,2.79,1.79l-.31.27a42.22,42.22,0,0,0-4.65,0c-.16-.14-.49-.36-.18-.54Zm27.39,16.77a3.65,3.65,0,0,1-.19,1.75c-2.83.71-4.69-1.9-7.43-1.51l.31,1.35c2.54.08,4.12,2.2,6.75,2.11-.37.64.16,2.35-1.49,1.67-1.71-.36-2.95-1.67-4.83-1.67-.23.36-.08.86-.12,1.29,2,.27,3.41,1.73,5.39,2a2.75,2.75,0,0,1-.93,1.62c-1.61-.34-2.87-1.6-4.59-1.57l-.31,1.24c1.64,0,2.69,1.3,4.15,1.68,0,.52-.49,1-.8,1.46-1.3-.34-2.3-1.32-3.78-1.25,0-.48.31-1,.18-1.56-1.67.43-2.78-.92-4-1.73,0-2.65-3.24-4.4-3.41-6.88A3.14,3.14,0,0,1,466,765a7.56,7.56,0,0,0-.43-6.86,4.33,4.33,0,0,0-1.55-1.24c.84,1.57,1.88,3.42,1.36,5.34-.06,1.49-1.07,2.92-1.08,4.35a2.72,2.72,0,0,0,.46,1.54c1.34,2.1,3.76,4.1,2.85,6.74-.25.82-1,1.44-1.18,2.27,1.57,1.13,3.06,2.41,5.14,2.48.75-.41.34-2.24,1.86-1.4l2.23,1a3.16,3.16,0,0,1-1.11,1.34,6.13,6.13,0,0,0-2.73-.75,1.31,1.31,0,0,0-.55,1,5.41,5.41,0,0,1,2,.76,4.72,4.72,0,0,1-1.37,1.29l-1.73-.54c-.29.36-.89.74-.67,1.14a3.68,3.68,0,0,1,1.11.59A11.52,11.52,0,0,1,468,785.7c-.8-2.28-3.45-3.88-3.22-6.53l-.12-.11c-.62.61-.41,1.59-.37,2.38.74,1.65,2.51,2.93,2.78,4.75-.31.47-1,.56-1.55.76.07-3.28-5.63-5.76-2-9.07,1.22-1.62,3.26-3.17,2.54-5.4s-3.37-3.49-3.35-5.91v-.19c.59-2.52,2.41-5.2.93-7.88a4.79,4.79,0,0,0-2.6-2.76,7,7,0,0,1,1.54,7.45,9.12,9.12,0,0,0-1.36,3.38h0a2.55,2.55,0,0,0,.56,1.81c1.42,2,3.9,4.23,2.48,6.86-1.62,2.1-4.42,4.24-2.85,7,1.13,1.66,2.89,3.31,2.41,5.34l-1.85.54c1.23-3.79-4.84-6-2.3-9.82,1.57-2,4.38-3.94,2.79-6.64-1-1.67-2.91-2.66-2.85-4.75l.07-.35c.64-3,3.22-5.77,1.42-8.94a6,6,0,0,0-2.48-2.42l-.07,0a6,6,0,0,1,1.62,7.07c-.53,1.38-1.7,2.76-1.93,4.24a3.06,3.06,0,0,0,.44,2.18c1.34,1.86,3.7,3.82,2.23,6.22-1.55,2-4.13,3.9-3.1,6.47,1.14,2.25,3.51,4.39,2.23,7.18l-1.92.38c1.53-2.72-.76-5.42-2.1-7.77-1.64-3.39,3.5-5,3.59-8.1,0-2-2.46-3.13-3-5-1.06-.77-2.15.31-3.41.11-.93.16-2.36-1.12-2.92.27-.66,2-3.67,3.53-2.35,5.94,1.26,2.14,4.3,3.71,3.28,6.48-.9,2.59-3.9,5-2,8-.77-.22-2.19.2-2.17-.87-1.18-3.61,3.84-5.72,2.29-9.33-.72-2.22-4-3.44-3.28-6.1.53-2.2,3.36-3.73,3-6.13a3.35,3.35,0,0,0-.17-.62c-1-2.59-3.2-5.18-1.92-8.21a10.33,10.33,0,0,1,1.67-2.37,5.29,5.29,0,0,0-3,5c-.09,2.23,1.8,4.14,2.07,6.18a3.41,3.41,0,0,1-.71,2.56c-1.34,1.59-3.1,3.26-2.29,5.35s3.78,3.38,3.59,5.83c0,2.89-3.88,4.7-2.79,7.94l-1.92-.55c-.76-2.88,2.75-4.35,2.79-7,.49-3.06-4-4.2-3.72-7.18,0-2.27,2.27-3.71,3.28-5.62a3,3,0,0,0,.21-1.32c-.12-2.11-2.3-3.76-1.94-6.13a7,7,0,0,1,2.1-4.59c-1.79.63-2.53,2.43-3,3.94-.86,2.43,1.19,4.61,1.4,6.78a3.35,3.35,0,0,1-1.21,2.89c-1.49,1.53-3,3.45-1.92,5.51,1.13,2.26,4.71,4,3.16,6.85-.85,1.78-2.87,3.13-2.79,5.24a5.59,5.59,0,0,1-1.55-.76c0-2.68,4.38-4.35,2.29-7.18-.18.56-.22,1.32-.37,2-.72,1.63-2.27,2.94-2.85,4.64a8.72,8.72,0,0,1-2.79-1.73l1.12-.6a3,3,0,0,0-.74-1c-.73-.09-1.2.33-1.8.49a9,9,0,0,1-1.43-1.24c.37-.92,3.27-.16,1.8-1.67-1-.54-2,.23-2.85.59l-1.17-1.3c1-.54,2-1.29,3.27-1.08.31.49.34,1.21.93,1.46,2.13,0,3.64-1.44,5.27-2.54-1.14-1.47-2.06-3.5-1.05-5.29.81-1.78,2.91-3.29,3-5.26a3.19,3.19,0,0,0-.28-1.43c-1.12-2.5-1.51-5.88.61-8.1-1.15.27-1.83,1.53-2.23,2.48-1.28,2.44.34,4.71.4,7.05a4.28,4.28,0,0,1-.15,1.27c-1.1,1.92-2.87,3.61-3.16,5.83-1.26.7-2.29,1.92-4.09,1.51a3.63,3.63,0,0,0,.25,1.51c-1.43-.05-2.4.86-3.59,1.29-.64-.17-.81-.89-1.06-1.4,1.41-.41,2.42-1.64,4-1.62.19-.45-.11-.86-.19-1.29-2-.78-5.18,3.83-5.45-.17,2-.1,3.29-1.72,5.27-1.89l.06-1.29c-2.25-.2-3.7,1.82-6,1.62l-.5-1.73c2.61.15,4.16-1.89,6.64-2a2.58,2.58,0,0,0,.43-1.45c-2.71-.31-4.56,2.3-7.43,1.51,0,0-.1-1.09-.16-1.7h0c0-.14,0-.27,0-.41,2.56.87,4.81-.73,7-1.56.56-.15,1.43.1,1.67-.43,0-.42.85-.9.13-1.19-3.2-.38-5.33,3-8.61,1.46l-.25-.44A24.21,24.21,0,0,1,441,744.14a30.77,30.77,0,0,1,27.14,1,25.74,25.74,0,0,1,9.66,9,21.51,21.51,0,0,1,3.1,10.14c-3.39,2.23-5.66-2.1-9.11-1.13a3.52,3.52,0,0,0,.68,1.35c3.06,0,5.16,2.77,8.36,1.67v.41Zm-38.91-10c-2.15-1.22-4.87-.07-6.88.6a5.63,5.63,0,0,0-2.54-4.21,1.64,1.64,0,0,0-.56-.22.33.33,0,0,0-.31.16c.73,3.87-2.16,6.57-4.21,9.5a3.65,3.65,0,0,0,2.61.27c2.16-.75,4.23-2.07,6.81-1.62a17.32,17.32,0,0,1,3.1-3.13,11.45,11.45,0,0,0,2-1.35Zm6.57,2.43c-.05.24,0,.65.43.49.64-.77,1.77-.16,2.48-.11v-.21a2.37,2.37,0,0,0-2-.77,3.45,3.45,0,0,0-.55.07.41.41,0,0,0-.37.53Zm10.09-2.32a4.33,4.33,0,0,0-3.09-1.83,15.43,15.43,0,0,0-1.81-.11h-.34a5.42,5.42,0,0,0-4.3,1.62c-.14.34-.76.82-.18,1.13,1.3-.07,2.78-.21,3.65.76,0,.86.64,2-.43,2.43-.89-.72-1.94.3-2.91-.27-.46-.24-.74,0-.93.38a6.12,6.12,0,0,0,3.47,5.93,4.93,4.93,0,0,0,3.28.16c2.44-1,3.45-3.25,3.9-5.34-.06-.4,0-1.17-.68-1.19a3.94,3.94,0,0,1-2.54,0c-.45.13-.47.71-1,.82l-.31-.22c-.27-1-.43-2.4.62-3.08a6.69,6.69,0,0,1,3.78-.27c.23-.34-.12-.61-.19-.92Zm-1.24,1.78h-.24c-.44.25-1.7.07-1.24.91.78-.54,1.88-.16,2.66.11.29-.13.23-.38.25-.59-.25-.41-.85-.45-1.43-.44Zm9-7.61c-1.53-.07-2.81.69-4.21,1-.12-1,.78-2.14,1-3.19-2.27.13-4.07,1.32-5.95,2.27-.43-.92-.87-1.83-1.3-2.75l2.48-2.05.06-.28L455,745.7a25,25,0,0,0-1.48-2.75c-.56.92-.93,1.89-1.49,2.81l-3.34.16v.22l2.53,2a6.72,6.72,0,0,1-1.36,2.92,30.46,30.46,0,0,0-4.58-2.16c-.39-.11-.95-.29-1.3-.06.51,1,1.23,2.06,1.11,3.14-.68-.11-1.21-.49-1.86-.65a5.07,5.07,0,0,0-2.41-.32,11.22,11.22,0,0,1,2.6,4.91A26,26,0,0,1,457.33,754a37.42,37.42,0,0,1,6.56,1.83c.09-1.91,1.47-3.44,2.42-5Zm7.06,10.37c2.1.48,4.22,2.48,6.44,1.18-1.94-2.8-4.83-5.39-4-9.07a.41.41,0,0,0-.37-.53,5,5,0,0,0-2.73,2.59,15.47,15.47,0,0,1-.62,1.89,9.75,9.75,0,0,0-4.95-1.19c-.67.07-1.62.11-1.74.7a13.63,13.63,0,0,1,5.08,4.32,11,11,0,0,1,2.91.11Zm-22.05,2.53.06.33c.8.47,1.05,1.26,2.17,1.19a2.88,2.88,0,0,0,2.23-1.41C454.44,763.68,452.8,763.93,451.32,763.73Zm1.11-1.45c0,.14-.1.36.12.43.67-.13,1.86.31,2.23-.38a1.62,1.62,0,0,0-1.12-.36,2.47,2.47,0,0,0-1.23.31Z" transform="translate(-388 -610)"/></svg>