<svg id="Capa_1" data-name="Capa 1" xmlns="http://www.w3.org/2000/svg" xmlns:xlink="http://www.w3.org/1999/xlink" viewBox="0 0 91.49 162.44"><defs><style>.cls-1{fill:none;}.cls-2{fill:#c9c8c8;}.cls-3{fill:#d8a88a;}.cls-4{fill:#ce9b80;}.cls-5{fill:#f7e3d6;}.cls-6{fill:#0d0d0d;opacity:0.16;}.cls-7{fill:#fbfbfb;opacity:0.1;}.cls-8{fill:#fdf9f9;}.cls-9{clip-path:url(#clip-path);}.cls-10{fill:#8e6854;}.cls-11{fill:#d19769;}</style><clipPath id="clip-path" transform="translate(-221.58 -276.5)"><path class="cls-1" d="M279.3,317.75a5.51,5.51,0,0,0,1.22-3.45,5.59,5.59,0,0,0-5.59-5.59h-4.12a4.89,4.89,0,0,0-4-7.76h-9.59a4.89,4.89,0,0,0-4,7.76h-4.12a5.59,5.59,0,0,0-5.59,5.59,5.51,5.51,0,0,0,1.22,3.45,14.71,14.71,0,0,0-12.83,14.59h60.19A14.71,14.71,0,0,0,279.3,317.75Z"/></clipPath></defs><title>frappe</title><polygon class="cls-2" points="40.45 55.85 4.54 55.85 21.28 162.06 40.45 162.06 59.63 162.06 76.36 55.85 40.45 55.85"/><polygon class="cls-3" points="40.45 60.34 10.35 57.32 25.78 153.72 40.45 153.72 55.61 153.72 70.55 60.34 40.45 60.34"/><polygon class="cls-4" points="70.55 60.34 40.45 63.23 11.1 59.14 13.8 81.21 68.39 81.28 70.55 60.34"/><polygon class="cls-5" points="70.55 55.85 10.35 55.85 12.81 75.19 67.6 75.19 70.55 55.85"/><polygon class="cls-6" points="19.15 55.85 33.76 162.06 21.28 162.06 4.54 55.85 19.15 55.85"/><polygon class="cls-7" points="66.59 55.85 50.46 162.44 40.45 162.06 50.46 55.85 66.59 55.85"/><polygon class="cls-8" points="76.36 55.85 59.63 162.06 54.47 162.06 70.55 55.85 76.36 55.85"/><g class="cls-9"><path class="cls-5" d="M279.3,317.75a5.51,5.51,0,0,0,1.22-3.45,5.59,5.59,0,0,0-5.59-5.59h-4.12a4.89,4.89,0,0,0-4-7.76h-9.59a4.89,4.89,0,0,0-4,7.76h-4.12a5.59,5.59,0,0,0-5.59,5.59,5.51,5.51,0,0,0,1.22,3.45,14.71,14.71,0,0,0-12.83,14.59h60.19A14.71,14.71,0,0,0,279.3,317.75Z" transform="translate(-221.58 -276.5)"/><polygon class="cls-10" points="89.06 53.92 88.61 53.95 87.44 54.23 89.06 53.92"/><path class="cls-10" d="M302.92,331.79c.23,0,.13,0,.36,0,1.51-.32,3-.62,4.52-1C305.74,331,304.28,331.7,302.92,331.79Z" transform="translate(-221.58 -276.5)"/><path class="cls-10" d="M301.58,331.93a15,15,0,0,0-2.91.49C299.28,332.24,302,332,301.58,331.93Z" transform="translate(-221.58 -276.5)"/><path class="cls-10" d="M287.23,288.26c-.12-.11-.27-.27-.4-.37Z" transform="translate(-221.58 -276.5)"/><path class="cls-10" d="M291.44,326.07l-.19.41a20.46,20.46,0,0,0,4.47-11.07,40.51,40.51,0,0,0-.7-12.35c.05.18.1.35.14.53a31,31,0,0,0-5.88-13.9,18.22,18.22,0,0,0-5.77-4.71,20,20,0,0,0-7.14-2,38.11,38.11,0,0,0-7.4.08,60.24,60.24,0,0,0-21.54,6.11l.66-.37c-.88.44-1.81,1-2.79,1.52-.26.12.24-.2.55-.37a45,45,0,0,0-7,4.33,49.37,49.37,0,0,0-5.37,4.59c-.81.9-1.09,1.35-.6.89-2.63,2.93-4.73,6.64-5,10.7a15.4,15.4,0,0,0,4.36,11.06,27.14,27.14,0,0,0,10.29,6.59,54.67,54.67,0,0,0,5.85,1.9c2,.6,4,1,5.93,1.47.76.17.89.25.67.27,13.65,2.53,28.32,2.3,42.43.7.53-.14-1.45.08-.07-.16-4.54.43-8.31,1-12.45,1.11l.53-.1c-3,.09-.6.23-3.73.25-1.23,0,.31-.1-.26-.09a150.81,150.81,0,0,1-19.05-.66c-.72-.18-2.42-.44-4.22-.71a49.22,49.22,0,0,1-4.82-1.06c-1.62-.32-3.23-.7-3.85-.8-5.36-1.5-10.78-3.38-15.08-6.95a18.36,18.36,0,0,1-5-6.49,13.2,13.2,0,0,1-1-8.07,17.82,17.82,0,0,1,3.56-7.47,33.6,33.6,0,0,1,6.08-5.89,59.55,59.55,0,0,1,15-8.21,53.62,53.62,0,0,1,16.87-3.81,32.06,32.06,0,0,1,9.26.53,17.41,17.41,0,0,1,8.18,4.32c.05.07,0,.07,0,0a21.16,21.16,0,0,1,4.29,5.72,31.55,31.55,0,0,1,2.68,7.34c.38,1.34.68,2.7.93,4.08a38.51,38.51,0,0,1,.06,11.14,21.35,21.35,0,0,1-1.56,5.33,17.57,17.57,0,0,1-3.05,4.62,23.66,23.66,0,0,1-9.38,5.9,51.24,51.24,0,0,1-11,2.5,77.58,77.58,0,0,1-22.62-.23,42.55,42.55,0,0,1-10.78-3.34,30.59,30.59,0,0,1-9.12-6.51,18.5,18.5,0,0,1-5.56-10.91,11,11,0,0,1,.11-3,12.24,12.24,0,0,1,.83-2.89,17.24,17.24,0,0,1,3.32-5A42.13,42.13,0,0,1,236,295.7a102,102,0,0,1,10.7-5.51q5.49-2.42,11.21-4.28a93,93,0,0,1,11.63-3.06,47.82,47.82,0,0,1,12.07-.84,29.14,29.14,0,0,1,11.81,3.18c-.06,0,.19.13-.59-.24a23.93,23.93,0,0,1,9.86,9.48,18.46,18.46,0,0,1,2.17,6.29,16.46,16.46,0,0,1-.41,6.62l0,0c-1.48,5.41-5.79,9.88-10.91,12.48s-11.08,3.6-16.88,3.94a89.2,89.2,0,0,1-17.32-.67c-2.83-.39-5.62-.89-8.35-1.53a49.42,49.42,0,0,1-7.91-2.45,25.34,25.34,0,0,1-8.33-5.57,17.17,17.17,0,0,1-4.72-9,15.59,15.59,0,0,1,2-10.11,27.34,27.34,0,0,1,7.11-7.9,43.29,43.29,0,0,1,9.3-5.39,49.08,49.08,0,0,1,10.27-3.26,38.65,38.65,0,0,1,21.07,1.38l-.09,0a31.94,31.94,0,0,1,13.66,9.37,24.63,24.63,0,0,1,4.28,7.07,13.31,13.31,0,0,1,.85,4,7.81,7.81,0,0,1-.12,2.05,11.11,11.11,0,0,1-.48,2,13.79,13.79,0,0,1-5.12,6.28,21.85,21.85,0,0,1-3.56,2.09,30.46,30.46,0,0,1-3.84,1.54,65.25,65.25,0,0,1-16.43,2.76,69.11,69.11,0,0,1-17.36-1.76c-5.69-1.38-11.5-3.28-16.15-7a15.22,15.22,0,0,1-5.13-7.12,12.22,12.22,0,0,1,.54-8.7,15.92,15.92,0,0,1,2.33-3.77c.45-.59,1-1.1,1.49-1.65s1.06-1,1.65-1.47a26.33,26.33,0,0,1,7.63-4.31,42.38,42.38,0,0,1,11.25-2.16,43,43,0,0,1,12.17,1.12A42,42,0,0,1,278.6,284a35.62,35.62,0,0,1,8.56,6.91l.89,1c.29.33.54.69.81,1,.52.7,1.09,1.36,1.58,2.07a9.9,9.9,0,0,1,1.95,4.69,6.62,6.62,0,0,1-1.63,4.67,9.41,9.41,0,0,1-4.11,2.86c-3.21,1.17-6.71,1-10.12.92s-6.84-.34-10.24-.73-6.79-.91-10.15-1.61a51.77,51.77,0,0,1-9.86-2.85,17,17,0,0,1-4.36-2.72,12.28,12.28,0,0,1-3.09-4.11A9,9,0,0,1,238,291a10.2,10.2,0,0,1,2.17-4.73,22.31,22.31,0,0,1,7.73-5.71,32.13,32.13,0,0,1,9.26-2.56c6.4-.83,12.85.06,19.08,1.29l4.67,1a27.72,27.72,0,0,1,4.62,1.26,6.74,6.74,0,0,1,3.65,3.08,5.69,5.69,0,0,1,.14,4.74,13.4,13.4,0,0,1-6.48,6.73,30.83,30.83,0,0,1-8.8,3.21c-5.76,1.39-12.09,1.28-18.38.46-1.58-.21-3.17-.46-4.75-.74a27,27,0,0,1-4.68-1.2,10.29,10.29,0,0,1-4-2.59,7.2,7.2,0,0,1-1.8-4.35c0,.15,0,.31,0,.46a5.26,5.26,0,0,1,.9-3.38,7.23,7.23,0,0,1,2.86-2.22,20.18,20.18,0,0,1,5.79-1.67l-.48.11c2.44-.4,5.65-1.37,7.2-1.24l.39-.1c3-.13.37.07,2.7.07a10.56,10.56,0,0,1,2.17,0,29,29,0,0,0,3.84.54c1.81.23,3.57.65,3.62.87-1.59-.37,2.47.73-1.14,0,.51.13,2,.47,3.27.82s2.37.69,2.18.53c.47,0,2.4.46-.47-.66l-.63-.07a7.77,7.77,0,0,1-1.07-.49c-1.94-.57-3.06-.82-4-1.08a30.31,30.31,0,0,0-3.27-.65s.06,0,0,0c-2-.08-4.74-.25-6.32-.21l-.63-.05c-1-.17-4.57.73-3.38.32a45.8,45.8,0,0,0-6.27,1.26c-1.05.31-2.11.61-3.17,1a9,9,0,0,0-3,1.81,5.25,5.25,0,0,0-1.62,3.26,6.91,6.91,0,0,0,.66,3.57,8.16,8.16,0,0,0,2.23,2.85,11.73,11.73,0,0,0,3.1,1.74,29.92,29.92,0,0,0,3.68,1c1.33.24,2.25.35,1.28.1a49.38,49.38,0,0,0,5.65,1,57.08,57.08,0,0,0,5.91.45,2,2,0,0,1-.61,0,26.26,26.26,0,0,0,5.36,0c.71-.06,1.41-.13,2.22-.23l2.9-.26c.34-.18,2.43-.53,4.69-1.2a22,22,0,0,0,5.72-2.51c.53-.24.72-.3.56-.15a15.38,15.38,0,0,0,5-4.16,10.58,10.58,0,0,0,1.64-2.94,6.71,6.71,0,0,0,.3-3.45,5.9,5.9,0,0,0-1.64-3,8.61,8.61,0,0,0-2.73-1.76,33.66,33.66,0,0,0-5.51-1.5c-2.94-.53-6.48-1.3-10-1.81a41.92,41.92,0,0,0-9.56-.45,35.33,35.33,0,0,0-7.94,1,26.1,26.1,0,0,0-8.53,3.76l.48-.35a21.71,21.71,0,0,0-4.17,3.42,11.88,11.88,0,0,0-2.8,4.83,9.1,9.1,0,0,0,.21,5.2,11.35,11.35,0,0,0,2.1,3.65,9.85,9.85,0,0,0,2.47,2.71,20.33,20.33,0,0,0,3.75,2.24c4.27,1.78,13.15,3.67,20,4.31,1,.28,5.63.49,6,.67,2.4.11,4.86.17,7.4.15a20.06,20.06,0,0,0,7.72-1.31,9.16,9.16,0,0,0,5.39-6,6.76,6.76,0,0,0-.39-4.19,14.72,14.72,0,0,0-2.16-3.55,40.08,40.08,0,0,0-12.32-10.72,44.11,44.11,0,0,0-15-5.2l.3,0-2.08-.12-1.07-.05-1.09,0-2.16.07-2.09.22c-.26,0-.23,0,.33-.07a39.08,39.08,0,0,0-10.8,2s0,0,.59-.25a25.63,25.63,0,0,0-9.88,5.76l-.21.12c-.33.3-.62.65-.92,1s-.59.67-.86,1c0-.08,0-.27,1-1.29a17.92,17.92,0,0,0-3.5,5.08,12.83,12.83,0,0,0,.7,12.1,17.71,17.71,0,0,0,4.15,4.64,34,34,0,0,0,11,5.59,64.18,64.18,0,0,0,12,2.68A65.66,65.66,0,0,0,282.8,315,28.8,28.8,0,0,0,294,309.7a13.89,13.89,0,0,0,3.92-4.88,11.1,11.1,0,0,0,.91-6.2,10.27,10.27,0,0,1,.17,1.24,15.38,15.38,0,0,0-1.84-6.21,3.63,3.63,0,0,1,.34.56,26.2,26.2,0,0,0-3.28-5.27,29.59,29.59,0,0,0-4.4-4.41,35.28,35.28,0,0,0-10.67-5.91c.05,0,1.2.35.17-.09-5.66-1.73-9.3-2.21-12.26-1.91-.27,0-.46-.1.14-.12a49,49,0,0,0-23.7,6.57,34.22,34.22,0,0,0-9.64,7.88,18,18,0,0,0-4.49,11.49,16.4,16.4,0,0,0,3.82,9.79,24,24,0,0,0,8.62,6.61,47.71,47.71,0,0,0,10.45,3.36A78,78,0,0,0,263,323.78l-.08.06a94.25,94.25,0,0,0,14,.16,48.55,48.55,0,0,0,13.95-2.68,24.28,24.28,0,0,0,11.41-8.46,17.7,17.7,0,0,0,2.94-6.55,16.17,16.17,0,0,0-.14-7.16A20.75,20.75,0,0,0,303,294a23,23,0,0,0-3-4.08c-.53-.64-1.18-1.17-1.77-1.77s-1.28-1.12-2-1.6a24.54,24.54,0,0,0-4.83-2.74l-.16-.15c-6.29-2.47-13.56-2.69-20.57-1.6a74.41,74.41,0,0,0-10.41,2.4,94.17,94.17,0,0,0-10,3.59l.85-.45c-1,.47-2.94,1.26-4.53,2s-2.81,1.31-2.38,1.27c-.75.32-1.5.66-2.25,1-2.07,1.15-4,2.28-6,3.43s-3.82,2.31-5.67,3.66a28,28,0,0,0-5.24,4.85,14.18,14.18,0,0,0-3.26,7.29l0-.76a13.13,13.13,0,0,0,0,4.76,18.62,18.62,0,0,0,1.26,4c-.16-.33-.11-.16-.42-.83,1.7,4.6,5.5,8.46,9.81,11.3A40.51,40.51,0,0,0,247,334.94l-1.17-.08a77,77,0,0,0,9.61,1.1,78.15,78.15,0,0,0,10.82-.23l-.39.09c1.09-.13,2.18-.24,3.26-.4l.1.11a50.71,50.71,0,0,0,12.11-2.69A23.15,23.15,0,0,0,291.44,326.07Z" transform="translate(-221.58 -276.5)"/><path class="cls-10" d="M245.85,290l.09,0C246.16,289.84,246.05,289.9,245.85,290Z" transform="translate(-221.58 -276.5)"/><path class="cls-10" d="M263.19,282.54c.4,0,.72.09,1,.13C264.16,282.65,263.53,282.56,263.19,282.54Z" transform="translate(-221.58 -276.5)"/><polygon class="cls-11" points="61.32 27.9 61.14 27.98 60.77 28.36 61.32 27.9"/><path class="cls-11" d="M280.19,306.49c.09,0,.07,0,.17,0,.51-.44,1-.89,1.51-1.35C281,305.48,280.75,306.26,280.19,306.49Z" transform="translate(-221.58 -276.5)"/><path class="cls-11" d="M279.67,306.78a3.22,3.22,0,0,0-1,.78C278.82,307.34,279.9,306.83,279.67,306.78Z" transform="translate(-221.58 -276.5)"/><path class="cls-11" d="M242.78,299.05l-.19.15A.94.94,0,0,0,242.78,299.05Z" transform="translate(-221.58 -276.5)"/><path class="cls-11" d="M258.78,291l.15-.15a62.61,62.61,0,0,0-10,3.9l.2-.15a47.61,47.61,0,0,0-10.9,7.44,17.83,17.83,0,0,0-3.91,5.17,7.87,7.87,0,0,0-.34,6.39c-.06-.13-.11-.16-.17-.29.19.39.44.8.68,1.21,0,.11-.12-.09-.2-.22a6.83,6.83,0,0,0,2.35,2.71,16.5,16.5,0,0,0,2.71,1.47c.5.17.75.14.49,0,3.33,1,7,.55,10.57-.14a76.1,76.1,0,0,0,10.48-2.76c.33-.09.4-.06.33,0a110.11,110.11,0,0,0,16.92-7.85c.16-.19-.59.26-.11-.13-1.75.95-3.08,2-4.75,2.71l.17-.18c-1.19.55-.15.29-1.42.81-.51.19.08-.14-.15,0-2.5,1.27-5.21,2.34-7.62,3.43-.66.08-2.84,1-3.87,1.16a11.39,11.39,0,0,0-1.61.65q-3.54,1-7.19,1.73a40.62,40.62,0,0,1-7.33.93,12.25,12.25,0,0,1-6.94-1.82,7.28,7.28,0,0,1-3.52-5.92c-.2-2.27,1-4.73,2.74-6.72a36.8,36.8,0,0,1,6.22-5.38s0,0,0,0a35.52,35.52,0,0,1,5.61-3.52c.52-.33,1.05-.65,1.59-.95a55,55,0,0,1,19-4.86,35.84,35.84,0,0,1,9.87.51c3.18.7,6.38,2.17,8.16,4.88a9.17,9.17,0,0,1,1.5,5.08,15.25,15.25,0,0,1-1,5.18,24.69,24.69,0,0,1-2.38,4.7,36.61,36.61,0,0,1-3.1,4.22,39.4,39.4,0,0,1-17.34,11.77s-.11,0,.25-.14a36.33,36.33,0,0,1-11.88,1.68v0a35.56,35.56,0,0,1-14.72-3.28c-4.59-2.16-9-5.09-11.51-9.17a11.16,11.16,0,0,1-1.4-4.15,10.59,10.59,0,0,1,.46-4.46,18.71,18.71,0,0,1,5.3-7.54,34.15,34.15,0,0,1,3.69-3l1.93-1.37c.66-.44,1.34-.85,2-1.28a71,71,0,0,1,8.28-4.43V289a69.55,69.55,0,0,1,28.48-5.89A77,77,0,0,1,291,284.79a34.6,34.6,0,0,1,14.1,6.37,33.1,33.1,0,0,1,3.58,3.54,20.37,20.37,0,0,1,2.84,4.55,16.5,16.5,0,0,1,1.19,5.19,15,15,0,0,1-.63,4.8,24.22,24.22,0,0,1-4.36,7.9,35.56,35.56,0,0,1-6.48,6.2c-.58.47-1.22.87-1.83,1.31l-1.91,1.19c-1.25.83-2.63,1.47-3.94,2.21a63,63,0,0,1-8.43,3.48,87.13,87.13,0,0,1-16.58,3.1,92.22,92.22,0,0,1-16.61.09,74.63,74.63,0,0,1-16.45-2.29l.18.13c-1.93-.7-4.52-1.05-5.55-1.95l.21.08a8.19,8.19,0,0,0-1.63-.67,3,3,0,0,1-1.3-.64l-.2,0c-1.14-.7-.09-.14-.91-.76-.32-.22-.21,0-.83-.49,0-.18-.6-.69-1.2-1.22s-1.11-1.14-1-1.3c.49.52-.64-.92.51.19-.33-.31-1.63-2-1.66-1.79-.25-.05-.89-.67-.22.51l.28.14c.17.44.16.32.18.51.51.73.88,1.09,1.12,1.47a7.73,7.73,0,0,0,1,1.14s0,0,0,0c.37.25.8.56,1.2.86s.77.62,1.06.8l.2.22c.27.39,1.92.77,1.32.73a37.9,37.9,0,0,0,11.26,3.57c.57,0,3.05.46,2.21.14a26.72,26.72,0,0,0,5.06.81.6.6,0,0,1-.27,0c2.13.45,2.57-.05,4.56.4a8.28,8.28,0,0,1,2.1,0,13.17,13.17,0,0,0,2.72,0c.25.06.33.12.24.16,3.64.09,7.67.08,10.75-.11,2.61-.41,6.38-.47,8.58-1.18.93-.12,2.15-.27,3.45-.53.65-.13,1.33-.26,2-.41l1.95-.56-.24.1c1.45-.35,3-.89,4.5-1.38a37.41,37.41,0,0,0,3.68-1.56,15.55,15.55,0,0,0,3.28-1.12,58.64,58.64,0,0,0,7.65-4.79c.47-.15,1.93-1.59,2.17-1.55a31.1,31.1,0,0,0,8-11.2,17.4,17.4,0,0,0,1.19-7.18,17,17,0,0,0-1.85-6.89l.08.11c-.36-.49-.75-1-1.18-1.49s-.9-.94-1.34-1.35c-.07-.1,0-.11.13.08a23.73,23.73,0,0,0-3.42-3.45s0,0,.26.13a24.3,24.3,0,0,0-4.19-2.83l-.06-.09-1.07-.49c.06,0,.14-.1.68.21A39.9,39.9,0,0,0,291,284.16a70.86,70.86,0,0,0-10.7-1.51,73.63,73.63,0,0,0-21.58,2l.5-.18c-.9.26-1.81.48-2.7.8,0,0,.13-.09.26-.14a65,65,0,0,0-10.14,3.66s.47-.3,0-.14c-2.26,1.27-3.86,1.58-4.81,2.56-.11,0-.22,0,0-.14a72.27,72.27,0,0,0-9.06,6c-2.83,2.29-5.52,5-7,8.41a12.53,12.53,0,0,0-.73,4.65,11.18,11.18,0,0,0,1.27,4.65,18.28,18.28,0,0,0,6.65,6.84l-.06,0A39.33,39.33,0,0,0,256.75,328a35.63,35.63,0,0,0,9.11-1.9l.11.05a54.4,54.4,0,0,0,8.22-4.05,28.94,28.94,0,0,0,7.12-6l-.21.38c.57-.77,2.5-2.76,2-2.67l.73-.81c1.07-1.79,2.14-3.35,3.1-5.12a15.17,15.17,0,0,0,1.93-6.35l0,.34a15.56,15.56,0,0,0-.23-3.93c0,.15,0,.08.13.39a8.53,8.53,0,0,0-3.37-5.64,16.28,16.28,0,0,0-6.25-2.71h.52c-1.07-.2-2.59-.48-4.21-.62-.81-.07-1.65-.11-2.46-.11a21.63,21.63,0,0,0-2.3,0l.17-.07-1.44.14,0-.12A50.27,50.27,0,0,0,258.78,291Z" transform="translate(-221.58 -276.5)"/><path class="cls-11" d="M234.29,314.32l0,0C234.22,314.19,234.24,314.24,234.29,314.32Z" transform="translate(-221.58 -276.5)"/><path class="cls-11" d="M224.76,328.08l-.34-.33A2.73,2.73,0,0,0,224.76,328.08Z" transform="translate(-221.58 -276.5)"/></g></svg>