<?xml version="1.0"?>
<svg xmlns="http://www.w3.org/2000/svg" xmlns:xlink="http://www.w3.org/1999/xlink" xmlns:svgjs="http://svgjs.com/svgjs" version="1.1" width="512" height="512" x="0" y="0" viewBox="0 0 512 512" style="enable-background:new 0 0 512 512" xml:space="preserve" class=""><g transform="matrix(1,0,0,1,0,0)">
<path xmlns="http://www.w3.org/2000/svg" style="" d="M48.628,366.741v-76.569c0-131.622,106.701-238.323,238.323-238.323h90.472  c23.418,0,42.403,18.984,42.403,42.403l0,0c0,23.418-18.984,42.403-42.403,42.403h-42.284c-11.699,0-21.183,9.484-21.183,21.183  v0.731c0,11.699,9.484,21.183,21.183,21.183l0,0c70.821,0,128.233,57.412,128.233,128.233v58.756H48.628z" fill="#d84f48" data-original="#d84f48" class=""/>
<path xmlns="http://www.w3.org/2000/svg" style="" d="M414.157,73.066h-74.178c-122.75,0-222.265,99.515-222.265,222.265v71.41H48.626v-76.569  c0-131.619,106.708-238.327,238.327-238.327h90.468C393.125,51.847,406.835,60.377,414.157,73.066z" fill="#bf3936" data-original="#bf3936"/>
<path xmlns="http://www.w3.org/2000/svg" style="" d="M456.733,502.154H55.266c-26.281,0-47.784-21.503-47.784-47.784v-39.844  c0-26.281,21.503-47.784,47.784-47.784h401.467c26.281,0,47.784,21.503,47.784,47.784v39.844  C504.517,480.65,483.014,502.154,456.733,502.154z" fill="#f1f2f2" data-original="#f1f2f2" class=""/>
<path xmlns="http://www.w3.org/2000/svg" style="" d="M122.694,502.15h-67.43c-26.279,0-47.78-21.501-47.78-47.78v-39.849  c0-26.279,21.501-47.78,47.78-47.78h67.43c-6.617,0-12.034,5.417-12.034,12.034v111.341  C110.66,496.733,116.077,502.15,122.694,502.15z" fill="#dddddd" data-original="#dddddd" class=""/>
<circle xmlns="http://www.w3.org/2000/svg" style="" cx="426.36" cy="86.731" r="76.888" fill="#f1f2f2" data-original="#f1f2f2" class=""/>
<path xmlns="http://www.w3.org/2000/svg" style="" d="M491.837,127.055c-13.542,21.945-37.798,36.568-65.477,36.568c-42.471,0-76.896-34.425-76.896-76.886  c0-29.564,16.687-55.239,41.171-68.096c-7.242,11.717-11.409,25.536-11.409,40.318c0,42.461,34.425,76.886,76.896,76.886  C469.009,135.846,481.162,132.671,491.837,127.055z" fill="#dddddd" data-original="#dddddd" class=""/>
<path xmlns="http://www.w3.org/2000/svg" d="M470.854,361.094v-53.11c0-74.833-60.882-135.715-135.715-135.715c-7.555,0-13.701-6.146-13.701-13.701v-0.732  c0-7.555,6.146-13.7,13.701-13.7h29.459c15.416,16.574,37.391,26.969,61.757,26.969c46.522,0,84.371-37.848,84.371-84.371  c0-20.959-7.739-41.056-21.79-56.587c-2.774-3.066-7.507-3.303-10.568-0.529c-3.065,2.772-3.302,7.504-0.529,10.568  c11.557,12.775,17.922,29.306,17.922,46.548c0,38.27-31.135,69.406-69.406,69.406c-38.27,0-69.406-31.135-69.406-69.406  c0-38.27,31.135-69.406,69.406-69.406c3.675,0,7.363,0.289,10.961,0.859c4.089,0.652,7.915-2.139,8.561-6.218  c0.647-4.082-2.137-7.915-6.219-8.562c-4.37-0.693-8.845-1.044-13.303-1.044c-31.085,0-58.277,16.91-72.914,42.002h-66.489  c-50.347,0-98.744,15.115-139.96,43.712c-40.265,27.936-70.995,66.717-88.867,112.149c-1.513,3.846,0.379,8.189,4.224,9.702  c3.845,1.512,8.19-0.378,9.703-4.225c34.978-88.918,119.331-146.373,214.9-146.373h59.627c-2.962,8.599-4.594,17.812-4.594,27.404  c0,15.465,4.202,29.96,11.495,42.436h-18.34c-15.806,0-28.666,12.86-28.666,28.666v0.732c0,15.806,12.86,28.666,28.666,28.666  c66.582,0,120.75,54.168,120.75,120.75v51.274H56.111v-69.087c0-11.829,0.902-23.705,2.681-35.301  c0.627-4.085-2.177-7.904-6.261-8.531c-4.082-0.631-7.904,2.177-8.53,6.261c-1.894,12.344-2.854,24.985-2.854,37.571v70.923  C17.491,367.352,0,388.931,0,414.525v39.844c0,30.474,24.792,55.267,55.266,55.267h401.467c30.474,0,55.267-24.793,55.267-55.267  v-39.844C512,388.931,494.509,367.352,470.854,361.094z M497.035,454.369c0,22.223-18.079,40.302-40.302,40.302H55.266  c-22.222,0-40.301-18.079-40.301-40.302v-39.844c0-22.223,18.079-40.302,40.301-40.302h401.467  c22.223,0,40.302,18.079,40.302,40.302V454.369z" fill="#f7f7f7" data-original="#000000" style="" class=""/>
<g xmlns="http://www.w3.org/2000/svg">
</g>
<g xmlns="http://www.w3.org/2000/svg">
</g>
<g xmlns="http://www.w3.org/2000/svg">
</g>
<g xmlns="http://www.w3.org/2000/svg">
</g>
<g xmlns="http://www.w3.org/2000/svg">
</g>
<g xmlns="http://www.w3.org/2000/svg">
</g>
<g xmlns="http://www.w3.org/2000/svg">
</g>
<g xmlns="http://www.w3.org/2000/svg">
</g>
<g xmlns="http://www.w3.org/2000/svg">
</g>
<g xmlns="http://www.w3.org/2000/svg">
</g>
<g xmlns="http://www.w3.org/2000/svg">
</g>
<g xmlns="http://www.w3.org/2000/svg">
</g>
<g xmlns="http://www.w3.org/2000/svg">
</g>
<g xmlns="http://www.w3.org/2000/svg">
</g>
<g xmlns="http://www.w3.org/2000/svg">
</g>
</g></svg>
