<?xml version="1.0"?>
<svg xmlns="http://www.w3.org/2000/svg" xmlns:xlink="http://www.w3.org/1999/xlink" xmlns:svgjs="http://svgjs.com/svgjs" version="1.1" width="512" height="512" x="0" y="0" viewBox="0 0 256 256" style="enable-background:new 0 0 512 512" xml:space="preserve" class=""><g><path xmlns="http://www.w3.org/2000/svg" d="m245.61 197.22a10.27 10.27 0 0 1 -10.28 10.28h-4.16a35.74 35.74 0 0 1 -70.39 0h-4.16a10.285 10.285 0 1 1 0-20.57h3.61v4.75l14.35-20.23h42.79l14.35 20.23v-4.75h3.61a10.279 10.279 0 0 1 10.28 10.29z" fill="#ffb69f" data-original="#ffb69f" style="" class=""/><path xmlns="http://www.w3.org/2000/svg" d="m231.642 106.8a49.445 49.445 0 1 0 -79.714-52.272 7.927 7.927 0 0 1 -3.979 4.678l-20.792 10.454 20.792 10.451a7.929 7.929 0 0 1 3.979 4.679c10.964 34.227 53.477 45.155 79.714 22.01z" fill="#f0c020" data-original="#f0c020" style="" class=""/><path xmlns="http://www.w3.org/2000/svg" d="m107.191 68.511v29.721h-20.491a30.054 30.054 0 0 0 1.057-7.945v-24.276l-49.363-6.627a10.364 10.364 0 0 0 -11.694 10.276v20.627a30.8 30.8 0 0 0 1.057 7.945h-20.51v-28.6c0-27.521 21.769-50.7 49.244-51.108a49.953 49.953 0 0 1 50.7 49.987z" fill="#7c7b7a" data-original="#7c7b7a" style="" class=""/><path xmlns="http://www.w3.org/2000/svg" d="m38.394 59.384a10.364 10.364 0 0 0 -11.694 10.276v20.627a30.527 30.527 0 0 0 60 7.945 30.054 30.054 0 0 0 1.057-7.945v-24.276z" fill="#ffb69f" data-original="#ffb69f" style="" class=""/><path xmlns="http://www.w3.org/2000/svg" d="m233.54 139.322-6.472-4.43a12.269 12.269 0 0 1 -12.05 9.982h-38.562a16.232 16.232 0 0 0 -16.226 16.226v30.58l14.35-20.23h-.015 42.813-.008l14.35 20.23v-20.237l4.469-4.529a18.071 18.071 0 0 0 -2.649-27.592z" fill="#7c7b7a" data-original="#7c7b7a" style="" class=""/><path xmlns="http://www.w3.org/2000/svg" d="m26.844 148.9a49.326 49.326 0 1 0 79.521 52.147 7.909 7.909 0 0 1 3.97-4.668l20.741-10.426-20.741-10.423a7.909 7.909 0 0 1 -3.97-4.668 49.329 49.329 0 0 0 -79.521-21.962z" fill="#72c1e8" data-original="#72c1e8" style="" class=""/><g xmlns="http://www.w3.org/2000/svg" fill="#f0c020"><path d="m24.229 239.369c-3.684-1.218-7.488-2.281-9.623-11.481-1.967 8.473-5.119 9.992-9.623 11.481 7.347 2.427 8.455 6.447 9.623 11.48 2.013-8.676 5.343-10.066 9.623-11.48z" fill="#f0c020" data-original="#f0c020" style="" class=""/><path d="m123.167 123.133c-3.683-1.217-7.487-2.28-9.622-11.48-1.967 8.473-5.119 9.992-9.623 11.48 7.347 2.428 8.455 6.448 9.623 11.481 2.013-8.676 5.342-10.066 9.622-11.481z" fill="#f0c020" data-original="#f0c020" style="" class=""/><path d="m152.078 141.946c-3.683-1.217-7.487-2.28-9.623-11.48-1.967 8.473-5.118 9.992-9.622 11.48 7.346 2.428 8.455 6.448 9.622 11.481 2.013-8.677 5.345-10.066 9.623-11.481z" fill="#f0c020" data-original="#f0c020" style="" class=""/><path d="m251.017 16.626c-3.683-1.217-7.487-2.281-9.623-11.481-1.967 8.473-5.118 9.992-9.622 11.481 7.346 2.427 8.455 6.447 9.622 11.48 2.013-8.676 5.343-10.066 9.623-11.48z" fill="#f0c020" data-original="#f0c020" style="" class=""/></g><path xmlns="http://www.w3.org/2000/svg" d="m47.59 172.178h4.2a2.136 2.136 0 0 0 2.136-2.136v-6.921a5.1 5.1 0 0 1 4.814-5.172 4.966 4.966 0 0 1 5.119 4.964 9.265 9.265 0 0 0 9.265 9.265h4.729v34.781h-30.263a9.54 9.54 0 0 1 -9.539-9.54v-15.7a9.539 9.539 0 0 1 9.539-9.541z" fill="#ffb69f" data-original="#ffb69f" style="" class=""/><path xmlns="http://www.w3.org/2000/svg" d="m218.725 71.159-19.725 19.725-19.725-19.725a10.416 10.416 0 1 1 14.73-14.73l5 4.995 5-4.995a10.415 10.415 0 0 1 14.73 0 10.415 10.415 0 0 1 -.01 14.73z" fill="#fc5d3d" data-original="#fc5d3d" style="" class=""/><path xmlns="http://www.w3.org/2000/svg" d="m199 109.906a2.5 2.5 0 0 1 0-5c.728 0 1.465-.022 2.192-.067a2.5 2.5 0 0 1 .3 4.992c-.824.05-1.663.075-2.492.075zm9.761-3.673a2.5 2.5 0 0 1 1.578-3.164 34.489 34.489 0 0 0 11.949-6.869 35.42 35.42 0 0 0 12.018-26.54c0-16.725-11.687-31.047-28.42-34.828a2.5 2.5 0 0 1 1.1-4.877c19.028 4.3 32.318 20.628 32.318 39.705a40.419 40.419 0 0 1 -13.704 30.288 39.48 39.48 0 0 1 -13.67 7.863 2.5 2.5 0 0 1 -3.169-1.578z" fill="#ffffff" data-original="#f9e5af" style="" class=""/><path xmlns="http://www.w3.org/2000/svg" d="m90.746 55.866a35.706 35.706 0 0 0 -1.685-3.774 2.5 2.5 0 0 1 4.439-2.3 40.537 40.537 0 0 1 1.922 4.3 2.5 2.5 0 1 1 -4.676 1.769zm-7.01-11.427a35.958 35.958 0 0 0 -26.555-11.775 2.5 2.5 0 0 1 0-5 40.963 40.963 0 0 1 30.256 13.414 2.5 2.5 0 1 1 -3.7 3.361z" fill="#afafaf" data-original="#afafaf" style="" class=""/><path xmlns="http://www.w3.org/2000/svg" d="m19.22 185.956a40.3 40.3 0 0 1 13.67-30.2 2.5 2.5 0 1 1 3.308 3.75 35.176 35.176 0 0 0 35.891 59.248 2.5 2.5 0 1 1 1.785 4.671 40.2 40.2 0 0 1 -54.654-37.469zm60.5 31.844a2.5 2.5 0 0 1 .532-3.5c.746-.549 1.48-1.136 2.181-1.747a2.5 2.5 0 0 1 3.284 3.771c-.8.7-1.646 1.374-2.5 2a2.5 2.5 0 0 1 -3.497-.524z" fill="#c5e5ff" data-original="#c5e5ff" style="" class=""/><path xmlns="http://www.w3.org/2000/svg" d="m12.2 251.408a2.474 2.474 0 0 0 4.819 0c1.772-7.637 4.38-8.5 7.989-9.691a2.476 2.476 0 0 0 0-4.7c-3.467-1.142-6.176-1.881-7.989-9.691a2.475 2.475 0 0 0 -4.818 0c-1.774 7.637-4.246 8.454-7.99 9.691a2.476 2.476 0 0 0 0 4.7c6.214 2.054 6.919 5.092 7.989 9.691zm2.419-16.3a12.614 12.614 0 0 0 3.7 4.279 12.242 12.242 0 0 0 -3.659 4.129 12.849 12.849 0 0 0 -3.872-4.095 12.255 12.255 0 0 0 3.827-4.309z" fill="#ffffff" data-original="#000000" style="" class=""/><path xmlns="http://www.w3.org/2000/svg" d="m123.943 120.785c-3.467-1.142-6.176-1.881-7.989-9.691a2.476 2.476 0 0 0 -4.819 0c-1.773 7.637-4.246 8.454-7.989 9.691a2.476 2.476 0 0 0 0 4.7c6.218 2.054 6.922 5.092 7.989 9.691a2.474 2.474 0 0 0 4.819 0c1.772-7.637 4.38-8.5 7.989-9.691a2.476 2.476 0 0 0 0-4.7zm-10.349 6.5a12.857 12.857 0 0 0 -3.872-4.094 12.264 12.264 0 0 0 3.832-4.313 12.614 12.614 0 0 0 3.7 4.279 12.238 12.238 0 0 0 -3.66 4.127z" fill="#ffffff" data-original="#000000" style="" class=""/><path xmlns="http://www.w3.org/2000/svg" d="m144.864 129.907a2.475 2.475 0 0 0 -4.818 0c-1.773 7.637-4.246 8.454-7.989 9.691a2.476 2.476 0 0 0 0 4.7c6.217 2.054 6.922 5.092 7.989 9.691a2.474 2.474 0 0 0 4.819 0c1.771-7.637 4.379-8.5 7.989-9.691a2.476 2.476 0 0 0 0-4.7c-3.468-1.142-6.176-1.881-7.99-9.691zm-2.359 16.19a12.85 12.85 0 0 0 -3.873-4.097 12.266 12.266 0 0 0 3.833-4.313 12.612 12.612 0 0 0 3.7 4.279 12.225 12.225 0 0 0 -3.66 4.134z" fill="#ffffff" data-original="#000000" style="" class=""/><path xmlns="http://www.w3.org/2000/svg" d="m251.793 14.277c-3.468-1.142-6.176-1.881-7.99-9.691a2.475 2.475 0 0 0 -4.818 0c-1.773 7.637-4.246 8.454-7.989 9.691a2.475 2.475 0 0 0 0 4.7c6.217 2.054 6.922 5.092 7.989 9.691a2.474 2.474 0 0 0 4.819 0c1.771-7.637 4.379-8.5 7.989-9.691a2.476 2.476 0 0 0 0-4.7zm-10.35 6.5a12.827 12.827 0 0 0 -3.872-4.1 12.255 12.255 0 0 0 3.832-4.313 12.624 12.624 0 0 0 3.7 4.279 12.242 12.242 0 0 0 -3.66 4.134z" fill="#ffffff" data-original="#000000" style="" class=""/><path xmlns="http://www.w3.org/2000/svg" d="m154.2 90.74a2.5 2.5 0 1 0 3.38 1.03 2.5 2.5 0 0 0 -3.38-1.03z" fill="#ffffff" data-original="#000000" style="" class=""/><path xmlns="http://www.w3.org/2000/svg" d="m233.3 30.64a51.951 51.951 0 0 0 -83.75 23.13 5.453 5.453 0 0 1 -2.72 3.21l-20.8 10.45a2.5 2.5 0 0 0 0 4.46l20.8 10.45a5.428 5.428 0 0 1 2.43 2.49 2.552 2.552 0 0 0 3.34 1.16 2.5 2.5 0 0 0 1.16-3.34 10.418 10.418 0 0 0 -4.69-4.77l-16.35-8.22 16.35-8.22a10.443 10.443 0 0 0 5.24-6.15 46.948 46.948 0 1 1 8.56 44.34 2.57 2.57 0 0 0 -3.52-.32 2.5 2.5 0 0 0 -.32 3.52 51.947 51.947 0 1 0 74.27-72.19z" fill="#ffffff" data-original="#000000" style="" class=""/><path xmlns="http://www.w3.org/2000/svg" d="m4.75 98.23a2.492 2.492 0 0 0 2.5 2.5h18.65a33.029 33.029 0 0 0 62.657 0h18.633a2.492 2.492 0 0 0 2.5-2.5v-29.72c0-27.97-22.108-52.48-53.24-52.48-24.45.37-44.639 17.891-50.19 40.87a2.5 2.5 0 0 0 1.84 3.01 2.526 2.526 0 0 0 3.02-1.84c5.2-21.5 23.87-36.73 45.41-37.04 24.1-1.069 48.16 19.508 48.16 47.48v27.22h-14.9a29.613 29.613 0 0 0 .462-5.443v-24.276a2.526 2.526 0 0 0 -2.172-2.481c-.734-.1-48.752-6.544-49.486-6.635a12.894 12.894 0 0 0 -14.394 12.765v20.627a33.425 33.425 0 0 0 .463 5.443h-14.913v-18.37a2.5 2.5 0 0 0 -5 0zm24.45-28.57a7.876 7.876 0 0 1 8.867-7.8c31.468 4.226 20.858 2.8 47.183 6.338v22.092a28.025 28.025 0 0 1 -56.05 0z" fill="#ffffff" data-original="#000000" style="" class=""/><path xmlns="http://www.w3.org/2000/svg" d="m7.3 69.87a2.689 2.689 0 1 0 -.11-.01.375.375 0 0 0 .11.01z" fill="#ffffff" data-original="#000000" style="" class=""/><path xmlns="http://www.w3.org/2000/svg" d="m57.229 109.648a13.7 13.7 0 0 0 12.778-8.848 2.5 2.5 0 1 0 -4.683-1.753 8.65 8.65 0 0 1 -16.187.006 2.5 2.5 0 0 0 -4.687 1.741 13.673 13.673 0 0 0 12.779 8.854z" fill="#ffffff" data-original="#000000" style="" class=""/><path xmlns="http://www.w3.org/2000/svg" d="m40.55 81.449a2.5 2.5 0 0 0 2.5-2.5v-2.109a2.5 2.5 0 0 0 -5 0v2.109a2.5 2.5 0 0 0 2.5 2.5z" fill="#ffffff" data-original="#000000" style="" class=""/><path xmlns="http://www.w3.org/2000/svg" d="m73.9 81.449a2.5 2.5 0 0 0 2.5-2.5v-2.109a2.5 2.5 0 0 0 -5 0v2.109a2.5 2.5 0 0 0 2.5 2.5z" fill="#ffffff" data-original="#000000" style="" class=""/><path xmlns="http://www.w3.org/2000/svg" d="m57.225 91.076a2.5 2.5 0 0 0 2.5-2.5v-9.627a2.5 2.5 0 0 0 -5 0v9.627a2.5 2.5 0 0 0 2.5 2.5z" fill="#ffffff" data-original="#000000" style="" class=""/><path xmlns="http://www.w3.org/2000/svg" d="m237.966 168.673a20.572 20.572 0 0 0 -3.018-31.417l-6.468-4.427a2.5 2.5 0 0 0 -3.869 1.6 9.772 9.772 0 0 1 -9.592 7.948h-38.562a18.748 18.748 0 0 0 -18.727 18.723v23.328h-1.111a12.787 12.787 0 0 0 0 25.573h2.128a38.184 38.184 0 0 0 37.2 29.517h.009a38.159 38.159 0 0 0 37.244-29.518h2.125a12.787 12.787 0 0 0 0-25.573h-1.111v-11.956zm-81.347 36.327a7.787 7.787 0 0 1 0-15.573h1.111v11.845c0 1.259.074 2.648.18 3.728zm6.111-31.057h7.015l-7.015 9.889zm66.487 27.329a33.2 33.2 0 0 1 -33.26 33.245h-.008a33.228 33.228 0 0 1 -33.219-33.245v-8.8l13.146-18.53h40.195l13.146 18.53zm0-17.44-7.015-9.889h7.015zm6.112 5.595a7.787 7.787 0 0 1 0 15.573h-1.293c.106-1.091.181-2.487.181-3.728 0-8.455 0-11.668 0-11.845zm-4.655-20.486h-67.944v-7.841a13.743 13.743 0 0 1 13.727-13.727h38.562a14.781 14.781 0 0 0 13.386-8.538l3.723 2.549a15.572 15.572 0 0 1 2.278 23.771z" fill="#ffffff" data-original="#000000" style="" class=""/><path xmlns="http://www.w3.org/2000/svg" d="m207.27 210.41a2.549 2.549 0 0 0 -3.22 1.47 8.626 8.626 0 0 1 -16.14 0 2.546 2.546 0 0 0 -3.21-1.47 2.5 2.5 0 0 0 -1.48 3.21.01.01 0 0 0 .01.01 13.62 13.62 0 0 0 25.5 0 2.506 2.506 0 0 0 -1.46-3.22z" fill="#ffffff" data-original="#000000" style="" class=""/><path xmlns="http://www.w3.org/2000/svg" d="m179.34 187.225a2.5 2.5 0 0 0 -2.5 2.5v2.1a2.5 2.5 0 0 0 5 0v-2.1a2.5 2.5 0 0 0 -2.5-2.5z" fill="#ffffff" data-original="#000000" style="" class=""/><path xmlns="http://www.w3.org/2000/svg" d="m212.607 187.225a2.5 2.5 0 0 0 -2.5 2.5v2.1a2.5 2.5 0 0 0 5 0v-2.1a2.5 2.5 0 0 0 -2.5-2.5z" fill="#ffffff" data-original="#000000" style="" class=""/><path xmlns="http://www.w3.org/2000/svg" d="m195.974 203.932a2.5 2.5 0 0 0 2.5-2.5v-9.6a2.5 2.5 0 0 0 -5 0v9.6a2.5 2.5 0 0 0 2.5 2.5z" fill="#ffffff" data-original="#000000" style="" class=""/><path xmlns="http://www.w3.org/2000/svg" d="m108.75 170.1a51.83 51.83 0 0 0 -100.48 24.3 2.5 2.5 0 1 0 4.93-.82 47.471 47.471 0 0 1 -.62-7.62 46.824 46.824 0 0 1 91.4-14.34 10.471 10.471 0 0 0 5.23 6.14l16.3 8.2-16.3 8.19a10.471 10.471 0 0 0 -5.23 6.14 46.849 46.849 0 0 1 -84.03 10.9 2.563 2.563 0 0 0 -3.46-.76 2.488 2.488 0 0 0 -.75 3.45 51.833 51.833 0 0 0 93.01-12.07 5.337 5.337 0 0 1 2.71-3.19l20.74-10.43a2.5 2.5 0 0 0 0-4.47l-20.74-10.42a5.356 5.356 0 0 1 -2.71-3.2z" fill="#ffffff" data-original="#000000" style="" class=""/><path xmlns="http://www.w3.org/2000/svg" d="m15.68 202.73c-.01 0-.01 0-.01-.01a2.556 2.556 0 0 0 -3.23-1.43 2.5 2.5 0 1 0 3.24 1.44z" fill="#ffffff" data-original="#000000" style="" class=""/><path xmlns="http://www.w3.org/2000/svg" d="m47.59 174.678h4.2a4.641 4.641 0 0 0 4.636-4.635v-6.922a2.6 2.6 0 0 1 2.389-2.673 2.464 2.464 0 0 1 2.543 2.465 11.791 11.791 0 0 0 11.823 11.765h4.672a2.5 2.5 0 0 0 0-5h-4.731a6.774 6.774 0 0 1 -6.766-6.765 7.46 7.46 0 0 0 -7.693-7.463 7.63 7.63 0 0 0 -7.239 7.671v6.557h-3.834a12.053 12.053 0 0 0 -12.039 12.039v15.7a12.054 12.054 0 0 0 12.016 12.04h30.284a2.5 2.5 0 0 0 0-5h-30.261a7.041 7.041 0 0 1 -7.028-6.823h10.305a2.5 2.5 0 0 0 0-5h-10.316v-6.13h10.316a2.5 2.5 0 0 0 0-5h-10.306a7.043 7.043 0 0 1 7.029-6.826z" fill="#ffffff" data-original="#000000" style="" class=""/><path xmlns="http://www.w3.org/2000/svg" d="m200.768 92.651 19.725-19.725a12.915 12.915 0 0 0 -18.265-18.265l-3.228 3.227-3.228-3.227a12.915 12.915 0 1 0 -18.265 18.265l19.725 19.725a2.5 2.5 0 0 0 3.536 0zm-19.726-34.451a7.926 7.926 0 0 1 11.195 0l5 5a2.5 2.5 0 0 0 3.536 0l5-5a7.916 7.916 0 0 1 11.195 11.2l-17.968 17.948-17.958-17.957a7.926 7.926 0 0 1 0-11.191z" fill="#ffffff" data-original="#000000" style="" class=""/></g></svg>
