<svg xmlns="http://www.w3.org/2000/svg" viewBox="0 0 97 87.75"><defs><style>.cls-1{fill:#c9c8c8;}.cls-2{fill:#9a6f4b;}.cls-3{fill:#c49266;}.cls-4{fill:#906744;}.cls-5{fill:#f7e3d6;}.cls-6{fill:#0d0d0d;opacity:0.16;}.cls-7{fill:#fbfbfb;opacity:0.1;}.cls-8{fill:#fdf9f9;}</style></defs><title>Recurso 1</title><g id="Capa_2" data-name="Capa 2"><g id="Capa_1-2" data-name="Capa 1"><path class="cls-1" d="M89.15,23.83c-8.88-5.39-21.69-.51-28.62,10.91s-5.34,25,3.54,30.42,21.69.5,28.61-10.91S98,29.21,89.15,23.83ZM87.86,51.32C83,59.31,74,62.73,67.83,59s-7.32-13.31-2.47-21.29,13.81-11.41,20-7.64S92.71,43.33,87.86,51.32Z"/><polygon class="cls-1" points="39.88 4.51 0 4.51 13.87 87.75 39.88 87.75 65.89 87.75 79.76 4.51 39.88 4.51"/><polygon class="cls-2" points="39.88 4.51 7.27 4.51 18.61 74.23 39.88 74.23 61.15 74.23 72.49 4.51 39.88 4.51"/><polygon class="cls-3" points="72.49 4.51 39.88 4.51 7.27 4.51 10.06 21.63 69.7 21.63 72.49 4.51"/><polygon class="cls-4" points="17.5 67.35 18.61 74.23 39.88 74.23 61.15 74.23 62.27 67.35 17.5 67.35"/><path class="cls-5" d="M7.27,4.52,19.35,1a26.16,26.16,0,0,1,17,.85h0a9.59,9.59,0,0,0,7.07,0h0A26.81,26.81,0,0,1,60.79,1.1l11.7,3.42Z"/><polygon class="cls-6" points="17.5 4.51 28.76 87.75 13.87 87.75 0 4.51 17.5 4.51"/><polygon class="cls-7" points="68.33 4.51 54.63 87.75 47.02 87.75 50.07 4.51 68.33 4.51"/><polygon class="cls-8" points="79.76 4.51 65.89 87.75 58.89 87.75 72.49 4.51 79.76 4.51"/><path class="cls-8" d="M89.15,23.83C84,20.7,77.54,21.05,71.66,24.1l2.82,5.5c3.74-1.53,7.69-1.52,10.91.43,6.21,3.77,7.32,13.3,2.47,21.29a21.35,21.35,0,0,1-3,3.91l3.47,4.66a30.67,30.67,0,0,0,4.39-5.64C99.61,42.84,98,29.21,89.15,23.83Z"/></g></g></svg>